<?xml version="1.0" standalone="no"?>
<!DOCTYPE svg PUBLIC "-//W3C//DTD SVG 20010904//EN"
 "http://www.w3.org/TR/2001/REC-SVG-20010904/DTD/svg10.dtd">
<svg version="1.0" xmlns="http://www.w3.org/2000/svg"
 width="2087.000000pt" height="3000.000000pt" viewBox="0 0 2087.000000 3000.000000"
 preserveAspectRatio="xMidYMid meet">

<g transform="translate(0.000000,3000.000000) scale(0.100000,-0.100000)"
fill="#000000" stroke="none">
<path d="M16590 29978 c-3 -3 -60 -8 -127 -12 -67 -3 -127 -8 -135 -10 -7 -3
-42 -7 -78 -11 -67 -6 -359 -62 -395 -75 -11 -4 59 -10 155 -13 194 -6 327
-24 501 -67 556 -140 1038 -459 1374 -911 177 -238 311 -515 384 -792 52 -199
66 -310 65 -542 0 -173 -4 -233 -22 -337 -42 -234 -108 -439 -207 -643 -135
-278 -316 -499 -540 -660 l-80 -57 -160 6 c-685 28 -952 57 -1755 191 -179 30
-363 59 -410 65 -172 21 -398 7 -555 -35 -33 -9 -159 -65 -280 -125 -229 -113
-271 -126 -451 -145 -199 -21 -468 64 -616 194 -69 61 -71 50 -3 -20 143 -145
340 -235 598 -273 116 -18 360 -20 477 -6 41 6 176 13 300 16 398 12 929 -27
1590 -116 181 -24 196 -28 116 -29 -33 -1 -57 -3 -55 -5 2 -3 74 -14 159 -26
355 -49 803 -131 1044 -192 195 -48 310 -86 436 -143 182 -82 319 -113 540
-122 292 -12 661 44 970 146 47 16 75 22 63 14 -22 -15 -21 -16 39 -56 82 -55
187 -161 232 -236 58 -95 79 -163 80 -261 1 -128 -13 -149 -163 -239 -210
-126 -381 -198 -561 -235 -106 -22 -341 -39 -430 -32 -185 14 -607 18 -810 7
-215 -12 -417 -27 -477 -37 -67 -10 -29 -19 95 -22 384 -8 836 -64 1022 -127
157 -53 251 -45 728 69 44 10 60 11 54 3 -63 -81 -82 -113 -93 -163 -15 -69
-47 -96 -139 -121 -58 -15 -132 -17 -655 -19 -865 -3 -929 -11 -1417 -174
-572 -192 -837 -260 -1023 -261 -104 0 -160 11 -199 42 -43 33 -30 11 37 -65
122 -139 128 -142 271 -127 201 20 389 42 541 61 211 27 397 48 485 55 41 3
119 10 173 16 164 17 479 -14 822 -81 488 -95 963 -106 1365 -30 192 36 438
134 559 223 68 49 161 144 181 183 8 16 18 31 21 34 11 8 59 102 59 115 0 6
25 43 56 81 173 215 305 467 328 627 16 104 -29 153 -107 119 -43 -19 -139
-106 -195 -176 l-30 -39 -7 44 c-3 24 -5 91 -3 149 l3 105 99 52 c206 108 264
160 332 295 41 81 87 198 81 205 -2 1 -83 -54 -181 -123 -99 -68 -180 -123
-182 -122 -1 2 2 28 8 58 24 133 -61 337 -222 528 -41 50 -58 62 -74 58 -15
-3 -12 3 13 22 19 15 123 97 231 183 l197 156 11 59 c12 64 26 150 41 259 34
240 32 599 -4 872 -54 410 -217 839 -455 1198 -139 209 -390 486 -570 628
-479 380 -1081 676 -1680 827 -271 68 -433 97 -740 130 -102 11 -642 26 -650
18z m-147 -4415 c-7 -2 -21 -2 -30 0 -10 3 -4 5 12 5 17 0 24 -2 18 -5z"/>
<path d="M12990 25946 c0 -65 -40 -227 -75 -303 -13 -30 -48 -84 -76 -120
l-50 -64 35 -64 c83 -148 285 -410 450 -583 310 -325 671 -549 971 -601 209
-36 446 -4 691 95 266 106 519 270 951 615 204 163 386 286 539 363 95 47 236
102 309 119 58 14 -99 4 -216 -13 -248 -36 -496 -117 -739 -241 -151 -76 -266
-149 -425 -269 -222 -166 -378 -259 -521 -308 -280 -96 -595 -54 -920 123
-341 186 -675 588 -827 995 -39 106 -77 245 -77 284 0 14 -4 26 -10 26 -5 0
-10 -24 -10 -54z"/>
<path d="M16193 25573 c9 -2 23 -2 30 0 6 3 -1 5 -18 5 -16 0 -22 -2 -12 -5z"/>
<path d="M8590 22693 c-469 -605 -1104 -818 -2170 -728 -630 54 -1081 2 -1830
-208 -85 -24 -148 -46 -141 -48 8 -3 -3 -5 -25 -5 -21 0 -79 -7 -129 -16 -105
-19 -232 -15 -302 8 -26 8 -77 35 -113 60 -163 110 -397 153 -930 169 l-195 6
-40 -61 c-22 -34 -63 -84 -92 -111 l-52 -50 187 7 c168 6 198 5 302 -15 119
-23 261 -72 535 -185 211 -87 303 -109 420 -104 84 4 103 10 280 80 205 82
296 111 504 165 266 67 570 127 583 115 27 -27 46 -368 29 -527 -15 -135 -53
-311 -93 -425 -23 -65 -39 -93 -69 -121 -55 -52 -336 -236 -669 -441 -415
-255 -638 -376 -1305 -711 -430 -216 -507 -259 -646 -364 -210 -158 -345 -310
-441 -498 -28 -55 -71 -131 -96 -170 -25 -38 -60 -95 -78 -126 -66 -112 -296
-300 -457 -374 -146 -67 -301 -103 -455 -106 l-67 -2 55 -7 c135 -18 322 7
500 66 233 78 460 216 750 459 324 272 720 540 1271 862 282 165 879 490 879
478 0 -3 -31 -26 -70 -51 -38 -26 -70 -48 -70 -50 0 -2 55 26 123 62 184 99
775 392 922 459 310 139 566 233 767 279 257 60 523 202 798 424 202 164 466
440 627 655 36 48 68 87 70 87 2 0 -6 -18 -17 -41 l-21 -41 88 7 c256 20 529
-71 642 -215 45 -57 77 -146 66 -188 -10 -41 -166 -357 -215 -437 -109 -177
-280 -365 -460 -504 -52 -41 -205 -147 -340 -236 -277 -184 -454 -312 -668
-482 -147 -117 -392 -322 -392 -329 0 -2 60 36 133 84 281 188 639 397 835
490 53 25 149 64 212 86 63 23 142 60 175 81 81 54 225 194 401 391 81 90 148
164 149 164 0 0 -1 -42 -3 -93 -4 -80 -1 -100 18 -145 28 -64 23 -104 -19
-166 -63 -91 -214 -212 -596 -476 -582 -404 -805 -578 -1010 -791 -51 -52
-195 -233 -327 -409 -373 -497 -582 -741 -755 -881 -102 -82 -167 -111 -310
-143 -68 -15 -151 -37 -185 -50 -128 -49 -348 -151 -518 -241 -280 -148 -628
-321 -665 -330 -5 -2 -23 -9 -40 -16 -16 -7 -32 -13 -35 -14 -3 -1 -12 -4 -20
-8 -69 -27 -291 -71 -319 -63 -9 3 -27 7 -41 10 -14 2 -43 9 -65 15 -69 19
-183 29 -385 31 -107 1 -211 3 -230 5 -19 1 -38 1 -42 -2 -4 -2 25 -58 64
-124 l71 -121 115 3 116 4 70 -100 c38 -55 112 -158 163 -229 l94 -129 -10
-46 c-6 -25 -24 -106 -41 -179 -21 -91 -28 -138 -21 -150 17 -31 152 -247 159
-254 4 -4 27 79 50 185 41 182 48 206 55 196 90 -115 294 -363 429 -520 l177
-207 -71 -288 -71 -289 83 -133 c61 -98 85 -130 91 -119 5 8 40 140 78 292 61
243 68 280 56 299 -13 22 -336 621 -406 754 -21 41 -99 158 -172 261 -175 244
-301 430 -295 436 3 3 22 -21 44 -52 34 -51 268 -376 307 -428 13 -16 12 -8
-3 37 -10 31 -22 78 -26 103 -5 37 -21 65 -80 141 l-75 95 26 141 c14 78 28
145 32 148 5 4 37 14 73 24 80 21 238 95 348 164 46 29 87 52 92 52 4 0 10 -7
14 -15 5 -13 10 -13 40 2 19 9 32 21 29 26 -4 6 0 8 10 4 9 -3 44 3 79 14 35
12 69 23 76 25 10 3 7 13 -12 35 -32 38 -32 43 2 67 53 37 52 38 45 -32 l-6
-65 35 10 c20 5 69 13 109 17 l74 7 11 118 c6 64 13 119 15 121 14 13 194 97
244 113 125 43 99 55 285 -142 91 -97 165 -182 164 -188 0 -7 -4 -51 -7 -98
-7 -84 -6 -87 17 -102 23 -16 24 -15 30 21 3 20 9 82 12 137 11 163 23 144 24
-35 l0 -165 54 -50 55 -50 7 73 c3 40 10 72 14 70 4 -2 97 -88 206 -193 110
-104 286 -268 392 -364 132 -120 192 -181 192 -195 0 -30 -27 -257 -51 -429
-19 -136 -18 -221 1 -200 4 4 21 116 39 248 81 636 139 1360 142 1797 1 201
16 96 30 -208 22 -518 -13 -1138 -102 -1789 l-32 -230 33 -70 33 -70 18 115
c10 63 32 225 49 360 17 135 33 262 36 282 l6 38 74 -61 c40 -34 84 -72 97
-85 25 -24 150 -399 318 -949 120 -397 138 -452 139 -438 0 6 16 116 35 245
48 313 100 687 124 888 71 577 161 1664 161 1932 0 45 2 79 5 76 12 -12 16
-558 6 -883 -24 -796 -89 -1468 -217 -2245 l-46 -275 48 -40 c93 -79 789 -635
795 -635 8 0 34 136 88 465 153 923 235 1862 249 2835 4 349 9 464 15 410 12
-113 11 -1060 -2 -1345 -22 -472 -53 -862 -102 -1290 -32 -288 -106 -810 -142
-1008 l-24 -128 46 -38 c25 -21 81 -64 124 -96 124 -92 101 -85 -66 21 -55 35
-103 64 -107 64 -3 0 -16 -53 -29 -117 -40 -211 -101 -483 -168 -751 -35 -145
-63 -265 -61 -266 49 -43 885 -563 892 -555 2 2 28 96 59 209 213 777 351
1444 427 2066 18 147 18 148 19 67 3 -229 -48 -705 -124 -1150 -56 -332 -174
-863 -258 -1165 -18 -64 -22 -90 -13 -96 31 -25 550 -314 688 -383 44 -22 78
-42 76 -45 -11 -10 -445 179 -668 291 -90 45 -132 61 -135 53 -2 -7 -31 -105
-64 -218 -58 -198 -141 -451 -215 -653 l-35 -97 37 -23 c231 -145 624 -370
907 -521 110 -58 196 -106 192 -106 -4 0 -90 33 -190 74 -243 98 -538 236
-780 363 -182 96 -217 109 -217 82 0 -17 -193 -493 -279 -689 -45 -102 -83
-189 -84 -194 -2 -11 581 -404 915 -615 248 -158 751 -461 936 -566 56 -31
101 -59 99 -62 -11 -11 -378 149 -637 278 -424 212 -830 461 -1229 752 -73 54
-135 96 -137 94 -4 -3 -96 -198 -165 -346 -62 -134 -56 -86 9 66 71 167 126
312 121 316 -223 163 -492 386 -769 640 l-115 105 -13 -25 c-18 -33 -26 -24
-11 13 11 28 8 31 -122 156 -135 127 -175 183 -63 85 34 -29 95 -81 136 -115
l75 -61 11 24 c10 21 8 28 -13 49 -22 22 -26 23 -34 8 -7 -12 -13 -13 -23 -6
-202 157 -625 509 -641 535 -8 12 2 49 37 144 l47 128 -60 91 -60 90 -16 -37
c-23 -55 -38 -45 -16 11 16 41 17 50 5 67 -8 10 -15 17 -17 14 -2 -2 -26 -67
-52 -144 -27 -77 -54 -152 -62 -167 -12 -26 -11 -32 24 -85 20 -32 46 -74 58
-93 12 -19 42 -66 66 -104 90 -141 179 -284 236 -375 54 -88 68 -101 208 -214
83 -66 154 -124 159 -128 6 -5 -1 -40 -18 -88 l-27 -79 47 -73 c111 -176 127
-198 133 -195 3 2 26 59 51 125 26 70 50 119 56 117 6 -2 83 -58 170 -124 175
-132 491 -359 506 -364 11 -4 -170 -480 -192 -502 -4 -4 -58 33 -120 84 -64
53 -106 82 -99 68 7 -12 68 -111 137 -218 69 -107 156 -244 195 -305 39 -60
87 -128 107 -150 20 -22 74 -101 120 -175 47 -74 160 -254 253 -400 93 -146
173 -275 178 -287 10 -28 178 -285 195 -298 6 -5 24 -30 39 -55 16 -25 103
-160 194 -300 91 -140 174 -270 184 -288 33 -58 373 -566 401 -597 53 -60 459
-651 464 -675 3 -14 30 -61 60 -105 86 -124 95 -135 104 -129 5 3 7 2 6 -3 -5
-17 14 -52 26 -47 7 3 22 -14 36 -38 97 -178 378 -558 501 -679 213 -211 379
-198 435 34 20 86 30 395 17 560 -8 101 -7 108 9 104 13 -4 18 1 18 15 0 22
-43 307 -90 603 -16 99 -32 206 -35 237 -5 36 -11 55 -19 52 -7 -3 -19 45 -35
143 -13 82 -34 204 -46 273 -13 69 -19 127 -14 128 15 6 11 48 -18 202 -14 80
-32 150 -40 156 -22 19 -32 69 -22 113 9 41 -1 110 -61 426 -11 55 -22 123
-26 150 -7 56 -23 95 -24 58 0 -53 -18 -25 -34 55 -10 48 -20 96 -23 106 -4
15 -1 18 17 13 25 -6 25 -11 -16 202 -20 106 -27 128 -49 145 -24 19 -31 49
-100 406 -41 212 -75 398 -75 414 0 17 5 55 11 85 10 50 8 73 -20 216 -17 88
-44 224 -59 302 -15 79 -30 143 -34 143 -5 0 -8 -9 -8 -20 0 -23 -13 -26 -27
-7 -6 6 -33 138 -62 292 -29 154 -68 357 -86 452 -19 95 -37 195 -41 224 l-7
51 30 -15 29 -16 -22 107 c-12 59 -27 139 -34 179 -10 65 -14 72 -41 83 -34
15 -35 18 -80 259 -30 165 -31 178 -19 255 11 73 10 91 -9 186 -11 58 -34 177
-51 265 -17 88 -41 216 -55 285 -13 69 -29 155 -35 191 -13 74 -15 78 -51 101
-22 14 -29 30 -42 100 -34 181 -207 1099 -225 1191 -10 53 -15 97 -10 97 5 0
19 -5 30 -11 17 -9 20 -9 15 4 -3 8 -18 77 -33 153 -16 81 -33 142 -41 147 -9
6 -12 19 -8 40 6 30 -17 171 -65 407 -16 81 -54 276 -88 455 l-10 50 -1 -50
c-2 -69 -17 -91 -27 -39 -4 21 -28 152 -54 289 -26 138 -46 251 -45 253 2 2
12 -1 23 -7 17 -9 19 -8 16 7 -1 9 -15 80 -30 157 -22 116 -31 143 -51 160
-21 18 -30 52 -79 310 -177 937 -195 1029 -200 1044 -3 9 2 12 16 8 16 -4 20
-1 16 11 -3 9 -12 58 -21 107 -24 142 -36 188 -56 210 -13 14 -28 72 -49 180
-17 88 -75 396 -130 685 -54 289 -122 647 -150 795 -50 260 -70 372 -70 387 0
4 -53 -28 -117 -71 -65 -44 -174 -111 -243 -151 -123 -71 -479 -250 -496 -250
-5 0 52 32 126 71 384 201 625 357 871 563 157 131 348 317 425 416 118 151
235 428 284 673 19 95 20 114 9 165 -9 39 -12 122 -10 262 4 279 -21 463 -81
608 -33 80 -93 152 -126 152 -61 0 -113 -97 -132 -247 -6 -48 -15 -106 -18
-128 l-7 -40 -73 85 c-40 47 -88 108 -108 136 l-35 51 59 109 c148 271 166
377 105 614 -23 92 -29 108 -36 99 -3 -3 -94 -243 -174 -456 -8 -22 -21 -14
-28 15 -12 55 -132 186 -187 204 -8 3 5 25 36 59 145 160 184 301 120 426 -16
31 -33 58 -39 60 -5 1 -44 -41 -85 -94z m-970 -3837 c0 -2 -7 -7 -16 -10 -8
-3 -12 -2 -9 4 6 10 25 14 25 6z m-40 -20 c0 -2 -7 -7 -16 -10 -8 -3 -12 -2
-9 4 6 10 25 14 25 6z m-219 -116 c-240 -133 -514 -317 -728 -489 -29 -24 -53
-41 -53 -39 0 5 256 220 315 264 108 82 585 353 620 354 6 0 -64 -41 -154 -90z
m-1226 -936 c-71 -69 -155 -147 -185 -174 -62 -55 -164 -132 -139 -105 28 29
444 404 449 404 3 0 -53 -56 -125 -125z m64 -517 c52 -138 137 -369 189 -512
l95 -260 -12 -185 c-7 -102 -14 -187 -17 -189 -2 -3 -21 11 -42 30 -244 228
-387 366 -554 534 l-199 199 7 126 c3 69 10 132 15 140 4 9 32 24 63 33 101
32 215 135 314 284 19 29 38 53 41 53 3 0 48 -114 100 -253z m-739 -137 c0
-23 -10 -26 -28 -8 -18 18 -15 28 8 28 13 0 20 -7 20 -20z m-1988 -710 c-5
-35 -9 -36 -31 -9 -27 33 -26 41 7 37 22 -2 26 -7 24 -28z m3208 -488 c0 -7
-4 -10 -10 -7 -5 3 -10 16 -10 28 0 18 2 19 10 7 5 -8 10 -21 10 -28z m3298
-4040 c2 -18 -1 -32 -7 -32 -6 0 -11 9 -11 19 0 11 -3 27 -7 37 -4 12 -2 15 8
12 8 -2 15 -19 17 -36z m-1657 -3688 c634 -477 1315 -937 1909 -1290 102 -61
204 -121 227 -134 160 -89 -179 52 -447 186 -535 267 -1037 603 -1515 1015
-161 139 -494 457 -449 428 12 -8 136 -100 275 -205z"/>
<path d="M975 22469 c-94 -14 -219 -55 -210 -70 4 -5 0 -6 -7 -4 -18 7 -124
-58 -120 -74 1 -7 -2 -9 -8 -6 -14 9 -52 -24 -43 -38 4 -6 1 -7 -6 -2 -8 4
-24 -4 -41 -20 -22 -21 -35 -26 -54 -21 -14 3 -36 9 -49 12 -21 5 -26 0 -43
-43 -10 -26 -21 -52 -23 -57 -2 -5 16 5 40 21 124 85 319 148 514 168 39 4 72
11 75 14 10 14 162 111 173 111 7 0 6 4 -3 10 -18 12 -111 11 -195 -1z"/>
<path d="M11120 21152 c-669 -576 -1087 -1372 -1219 -2322 -41 -292 -46 -380
-45 -735 0 -380 17 -600 69 -878 13 -72 23 -132 22 -133 -1 -2 -29 7 -62 18
-33 11 -82 21 -109 22 -70 2 -74 -9 -53 -141 21 -131 22 -294 2 -388 -14 -66
-28 -97 -120 -270 -32 -61 -36 -76 -31 -117 17 -152 177 -313 505 -510 113
-67 545 -287 788 -401 l121 -56 7 -98 c4 -54 10 -118 14 -142 l6 -45 95 -38
c52 -21 100 -44 106 -51 7 -6 22 -70 34 -142 12 -71 34 -192 50 -268 l28 -139
-114 -146 c-80 -103 -113 -153 -110 -167 3 -11 10 -76 17 -145 6 -69 14 -133
18 -143 5 -14 33 17 126 138 66 85 122 155 125 155 3 0 23 -71 44 -157 39
-160 135 -518 180 -673 l25 -84 -96 -121 c-53 -66 -137 -169 -186 -229 l-90
-109 11 -101 c7 -56 15 -130 18 -165 l7 -65 29 35 c16 18 103 125 194 236
l164 202 -5 63 c-7 85 -33 549 -41 728 -5 107 -18 207 -49 380 -48 260 -61
333 -70 400 -4 25 -10 65 -15 90 -5 25 -5 49 -1 53 4 4 13 -27 19 -70 15 -98
64 -353 88 -458 l18 -80 7 67 c4 37 12 83 19 103 10 29 7 53 -16 153 l-27 118
88 122 c61 85 92 121 102 117 71 -27 317 -30 487 -6 53 7 59 6 63 -10 4 -14
15 -19 44 -19 22 0 39 5 39 10 0 6 10 4 23 -4 12 -7 52 -17 88 -20 l67 -6 -10
41 c-13 49 -3 59 54 59 l38 0 -30 -47 c-17 -26 -30 -50 -30 -55 0 -4 17 -10
38 -14 20 -4 67 -17 104 -30 l67 -22 62 105 61 105 167 -4 c91 -3 180 -10 196
-17 29 -11 34 -23 103 -229 39 -120 72 -223 72 -230 0 -7 -21 -49 -46 -94 -41
-72 -45 -83 -33 -104 7 -13 15 -24 19 -24 3 0 40 59 81 130 40 72 75 126 77
121 2 -5 -29 -72 -67 -150 l-71 -141 25 -56 c14 -31 25 -63 25 -70 0 -28 16
-13 48 46 19 33 37 60 41 60 4 0 49 -109 100 -242 52 -134 142 -359 201 -501
l108 -258 -65 -107 c-75 -122 -206 -330 -240 -381 -13 -19 -23 -48 -23 -65 0
-28 8 -19 71 78 125 192 263 416 389 631 67 116 144 246 170 290 72 120 261
475 366 689 52 104 96 191 99 194 10 10 -15 -59 -73 -203 -224 -558 -553
-1173 -939 -1756 l-84 -127 3 -78 3 -78 111 170 c122 184 300 467 307 487 8
20 22 -2 71 -110 l47 -101 -21 -174 c-36 -306 -143 -1096 -167 -1233 -6 -39
346 486 606 904 313 500 795 1340 965 1680 26 51 49 91 52 89 11 -11 -344
-759 -509 -1073 -313 -595 -685 -1206 -1070 -1758 l-89 -128 27 -62 c61 -136
446 -907 454 -907 20 0 463 657 693 1025 425 684 827 1424 1138 2097 35 76 65
136 68 134 5 -5 -105 -263 -209 -491 -379 -832 -858 -1689 -1399 -2500 -69
-104 -154 -228 -187 -275 l-61 -85 69 -133 c39 -74 69 -136 66 -138 -3 -3 -63
89 -148 226 -8 13 -11 13 -20 -2 -41 -71 -485 -644 -646 -836 -29 -35 -53 -68
-53 -73 0 -24 553 -879 569 -879 16 0 443 515 681 821 292 377 551 750 788
1139 12 19 22 31 22 25 0 -18 -186 -360 -293 -537 -285 -474 -624 -940 -1073
-1480 l-62 -74 175 -244 c97 -135 218 -301 270 -370 l94 -125 -92 95 c-107
111 -238 261 -388 447 -58 72 -108 132 -111 132 -3 1 -44 -43 -90 -96 -125
-143 -202 -226 -414 -447 -105 -110 -190 -205 -190 -212 3 -32 435 -647 659
-939 96 -125 101 -134 50 -85 -176 170 -629 711 -765 913 -14 20 -27 37 -30
37 -5 -1 -29 -23 -271 -250 -79 -74 -215 -198 -302 -274 -106 -94 -156 -144
-152 -154 9 -23 244 -414 383 -637 253 -406 574 -890 789 -1194 41 -57 72
-105 70 -107 -9 -9 -290 304 -423 471 -311 388 -563 768 -823 1235 -50 91 -93
165 -95 165 -3 0 -222 -182 -314 -261 -24 -20 -45 -34 -48 -32 -2 3 74 79 171
168 96 90 175 164 175 166 0 1 -19 35 -42 76 -88 154 -315 649 -408 888 -19
47 -35 87 -37 89 -2 3 -14 -6 -28 -19 -14 -13 -25 -19 -25 -13 0 5 9 18 20 28
11 10 20 23 20 29 0 6 -19 58 -41 116 -76 195 -88 230 -80 230 4 0 41 -72 81
-160 40 -88 76 -160 80 -160 4 0 14 8 22 17 12 15 12 24 3 52 -7 20 -15 29
-19 22 -4 -6 -12 -11 -17 -11 -11 0 -224 430 -323 650 l-56 125 100 100 101
101 -17 108 -17 107 -28 -27 c-42 -41 -49 -20 -7 24 26 27 33 43 29 59 -5 19
-22 5 -134 -113 l-128 -134 10 -97 c6 -54 22 -186 35 -293 14 -107 33 -253 42
-325 13 -102 23 -143 47 -190 16 -33 56 -115 87 -181 l58 -122 -55 -58 -54
-59 6 -60 c8 -93 26 -239 31 -254 3 -8 41 21 104 79 55 51 102 91 104 89 4 -6
66 -120 126 -234 29 -55 105 -192 168 -305 l115 -204 -104 -98 c-200 -190
-289 -271 -293 -267 -2 2 -31 58 -64 124 -34 66 -61 110 -61 99 -1 -12 10
-100 23 -195 13 -96 37 -262 51 -369 15 -107 32 -203 37 -213 9 -17 36 -215
107 -777 15 -124 28 -239 29 -257 1 -43 41 -324 47 -334 8 -12 95 -617 105
-729 5 -52 20 -169 35 -260 14 -91 35 -226 46 -300 11 -74 25 -148 30 -165 6
-16 28 -133 49 -260 22 -126 53 -304 70 -394 19 -104 26 -168 20 -176 -11 -13
32 -260 43 -248 5 4 5 0 1 -10 -8 -21 4 -89 15 -83 4 3 16 -60 25 -140 25
-215 97 -567 148 -724 27 -84 96 -197 142 -234 28 -23 49 -31 94 -34 51 -3 62
0 102 27 25 16 66 58 93 93 71 93 193 351 271 573 7 19 8 19 21 2 12 -17 18
-5 54 110 41 131 135 451 176 603 13 47 28 98 34 113 14 36 14 50 0 41 -7 -4
-9 0 -5 12 3 11 31 111 61 224 31 113 63 229 71 257 8 29 19 52 25 50 7 -1 31
66 55 153 33 116 43 165 39 196 -6 45 6 88 35 119 10 11 28 58 40 105 13 47
36 135 52 195 16 61 42 159 57 218 l28 108 -25 -23 c-23 -21 -24 -22 -19 -3 4
11 16 59 28 108 12 48 25 87 30 87 5 0 9 -4 9 -10 0 -5 4 -10 9 -10 5 0 18 37
30 83 12 45 31 117 43 160 20 74 20 80 5 106 -16 27 -13 42 83 425 54 218 102
402 106 409 4 6 22 30 39 52 23 28 40 69 59 140 50 191 136 525 136 531 0 4
-10 -5 -21 -20 -48 -61 -40 -8 46 335 119 472 166 653 170 658 3 2 13 -7 24
-20 11 -13 20 -21 21 -16 0 4 18 77 40 163 45 175 46 186 25 204 -22 18 -20
37 34 246 43 171 53 198 91 252 47 66 49 74 200 682 39 157 73 290 75 297 2 6
-5 23 -17 38 l-20 26 31 122 c17 67 65 255 106 417 42 162 105 412 141 555 36
143 68 262 70 264 2 3 11 -4 18 -15 8 -10 17 -17 20 -14 12 13 75 295 67 303
-5 5 -1 23 11 43 15 25 228 841 228 872 0 4 -12 -12 -26 -36 -14 -24 -28 -41
-31 -39 -5 5 133 546 142 555 3 3 11 -2 18 -12 11 -15 18 4 52 139 31 127 36
161 27 176 -7 10 -12 26 -12 34 0 20 331 1319 337 1325 3 3 8 -1 10 -7 8 -23
21 -13 26 20 2 17 19 88 37 156 25 99 30 129 21 148 -9 20 7 92 90 416 130
509 188 734 298 1167 50 195 97 375 104 400 l13 45 144 37 c260 65 424 132
666 268 182 103 267 163 359 255 84 83 139 163 174 252 11 28 41 84 67 125 67
104 186 336 232 453 65 164 88 322 61 420 -6 22 -32 92 -57 155 -45 111 -46
118 -46 220 0 90 5 120 33 210 64 205 67 319 15 490 -27 89 -69 180 -82 180
-4 0 -12 -4 -18 -9 -19 -19 -253 -130 -344 -164 -595 -221 -1221 -106 -2061
378 -457 264 -924 433 -1464 530 -404 72 -526 97 -600 121 -165 54 -236 108
-313 237 -101 170 -244 270 -792 552 -404 208 -496 262 -632 373 -88 70 -133
133 -179 248 -73 182 -248 406 -419 536 -79 60 -243 141 -327 163 -138 34
-301 29 -430 -16 -31 -10 -58 -19 -59 -19 -2 0 -18 13 -37 29 -62 55 -69 53
-197 -57z m804 -134 c226 -126 388 -312 587 -673 45 -82 105 -183 132 -223 62
-91 172 -195 261 -246 77 -45 75 -49 -30 -67 -112 -18 -312 -14 -459 11 -260
44 -468 6 -771 -140 -214 -103 -441 -252 -739 -484 -374 -293 -467 -354 -558
-371 -33 -6 -40 -4 -70 26 -28 28 -35 45 -41 90 -12 94 24 325 91 579 211 807
716 1348 1438 1543 39 11 83 -2 159 -45z m1607 -1485 c13 -16 12 -17 -3 -4
-17 13 -22 21 -14 21 2 0 10 -8 17 -17z m300 -310 c13 -16 12 -17 -3 -4 -17
13 -22 21 -14 21 2 0 10 -8 17 -17z m462 -1530 c-7 -2 -19 -2 -25 0 -7 3 -2 5
12 5 14 0 19 -2 13 -5z m-80 -10 c-7 -2 -19 -2 -25 0 -7 3 -2 5 12 5 14 0 19
-2 13 -5z m-1960 -110 c-7 -2 -21 -2 -30 0 -10 3 -4 5 12 5 17 0 24 -2 18 -5z
m1927 -428 c-384 -98 -748 -281 -1072 -537 -57 -44 -211 -189 -343 -322 -266
-267 -356 -339 -540 -430 -96 -48 -298 -116 -344 -116 -14 0 -14 -2 -1 -10 10
-6 3 -7 -24 -3 -31 5 -37 3 -31 -7 6 -10 4 -12 -9 -7 -9 4 -62 2 -117 -4 -173
-19 -415 15 -624 88 -136 47 -423 189 -534 263 -50 34 -91 63 -91 66 0 2 26
-9 58 -25 31 -16 109 -50 172 -76 475 -196 885 -256 1202 -176 214 55 368 164
788 556 393 367 538 479 788 604 213 107 538 177 752 162 l55 -4 -85 -22z
m700 -826 c-25 -73 -54 -116 -119 -176 -76 -70 -162 -97 -386 -118 -169 -17
-277 -58 -385 -148 -94 -77 -141 -143 -275 -387 -114 -206 -154 -266 -217
-326 -101 -96 -247 -161 -513 -227 -287 -73 -579 -81 -913 -27 -149 24 -323
66 -337 82 -7 7 -7 9 1 5 16 -9 328 -35 504 -42 173 -7 429 6 565 31 257 45
389 135 522 354 22 36 79 142 127 235 108 209 177 315 250 389 112 111 196
135 551 156 305 18 400 35 496 93 75 45 114 106 131 205 l13 77 3 -56 c2 -38
-4 -78 -18 -120z m-3307 -1623 c15 -12 16 -18 7 -35 -14 -27 -26 -27 -34 2
-13 48 -5 57 27 33z m2851 -208 c-50 -631 -76 -934 -83 -984 -7 -47 -27 -93
-96 -217 -48 -87 -90 -155 -95 -152 -11 7 -233 570 -321 814 l-73 204 40 75
c21 41 51 96 66 123 l28 47 72 -5 c118 -8 262 36 403 125 28 17 53 32 57 32 4
0 5 -28 2 -62z m-745 -2 c8 -10 8 -16 -2 -25 -11 -8 -16 -5 -25 14 -9 20 -9
25 2 25 7 0 19 -6 25 -14z m2004 -771 c-3 -9 -8 -14 -10 -11 -3 3 -2 9 2 15 9
16 15 13 8 -4z m-1403 -842 c0 -20 -3 -24 -11 -16 -7 7 -9 19 -6 27 10 24 17
19 17 -11z m1283 -5069 c-22 -35 -33 -29 -20 11 8 27 13 32 23 24 11 -9 10
-15 -3 -35z m-3150 -2476 c393 -757 969 -1714 1413 -2348 l45 -65 -82 85
c-254 264 -612 752 -855 1165 -170 289 -418 805 -530 1100 -62 165 -83 225
-80 225 3 0 42 -73 89 -162z"/>
<path d="M4715 19701 c-311 -276 -562 -625 -740 -1025 -30 -70 -85 -213 -121
-318 -145 -426 -257 -619 -452 -781 -187 -156 -362 -242 -622 -307 -201 -50
-321 -63 -540 -57 -502 13 -987 176 -1332 448 l-88 69 40 -65 c101 -166 134
-277 128 -442 l-3 -102 55 -21 c145 -56 505 -148 723 -185 369 -63 805 -61
1105 5 280 61 470 154 663 323 345 302 584 761 825 1587 109 374 297 764 445
925 68 74 31 51 -86 -54z"/>
<path d="M6830 14126 c0 -2 17 -49 38 -105 l39 -103 136 -108 136 -109 11 55
c6 30 10 61 8 69 -3 12 -368 311 -368 301z"/>
<path d="M4330 13990 c29 -47 75 -121 103 -165 27 -44 59 -96 72 -115 12 -19
75 -120 140 -225 65 -104 128 -206 140 -225 12 -19 71 -113 131 -209 103 -165
115 -180 259 -320 144 -141 257 -248 411 -392 l71 -66 -44 -136 -44 -135 77
-121 c41 -66 79 -123 83 -125 4 -3 31 68 60 157 29 89 57 166 62 171 5 5 14 4
24 -4 8 -7 -30 64 -84 156 -104 177 -115 191 -388 483 -164 175 -516 577 -521
594 -2 7 63 -58 146 -143 82 -85 229 -231 326 -324 l177 -169 -33 64 c-27 51
-79 111 -267 301 l-234 237 32 113 32 113 -68 122 c-37 67 -70 122 -73 123 -4
0 -12 -16 -19 -36 -7 -20 -21 -44 -31 -54 -10 -10 -28 -51 -39 -90 -11 -40
-22 -74 -24 -77 -7 -7 -216 221 -407 444 -128 148 -129 149 -70 53z"/>
<path d="M4881 13759 c-7 -22 -11 -43 -8 -45 2 -2 9 14 16 37 7 22 11 43 8 45
-2 2 -9 -14 -16 -37z"/>
<path d="M7305 13738 c-2 -7 -18 -83 -35 -168 -17 -85 -45 -221 -64 -302 l-33
-147 29 -88 c15 -48 28 -93 28 -100 0 -6 4 -14 8 -17 8 -5 38 120 108 454 19
90 37 166 40 169 14 15 47 -46 69 -129 91 -344 229 -921 281 -1179 l6 -35 -28
18 c-15 11 -99 70 -186 132 -87 63 -160 114 -162 114 -2 0 1 -18 8 -40 11 -37
30 -53 273 -225 143 -102 263 -185 267 -185 19 0 265 1126 248 1141 -4 3 -70
48 -147 100 -144 95 -433 299 -565 399 -127 95 -140 103 -145 88z"/>
<path d="M7141 13524 c0 -11 3 -14 6 -6 3 7 2 16 -1 19 -3 4 -6 -2 -5 -13z"/>
<path d="M7131 13474 c0 -11 3 -14 6 -6 3 7 2 16 -1 19 -3 4 -6 -2 -5 -13z"/>
<path d="M7122 13420 c0 -14 2 -19 5 -12 2 6 2 18 0 25 -3 6 -5 1 -5 -13z"/>
<path d="M7112 13370 c0 -14 2 -19 5 -12 2 6 2 18 0 25 -3 6 -5 1 -5 -13z"/>
<path d="M7445 12129 c15 -67 26 -78 169 -180 80 -56 146 -108 146 -114 0 -6
-6 -34 -14 -61 -8 -27 -42 -149 -76 -271 l-62 -222 14 -128 14 -128 31 100
c18 55 61 201 97 325 35 124 76 265 90 314 14 48 26 94 26 100 0 6 -26 27 -57
46 -32 19 -125 79 -208 135 -82 55 -156 104 -163 109 -11 6 -13 2 -7 -25z"/>
<path d="M11331 12123 c-1 -16 25 -251 54 -483 56 -451 67 -542 81 -675 18
-168 28 -200 203 -642 72 -181 131 -334 131 -339 0 -5 -42 -54 -93 -109 l-93
-100 14 -125 c22 -204 8 -200 147 -50 66 70 125 129 132 129 6 1 14 -7 17 -16
5 -17 3 2 -8 107 -3 25 -10 101 -16 170 -10 105 -19 147 -60 265 -95 279 -300
960 -300 996 1 26 15 -9 65 -156 52 -156 190 -527 230 -620 l26 -60 -7 78 c-4
57 -18 112 -51 200 -25 67 -73 202 -108 299 l-62 178 79 91 c50 58 77 97 74
107 -6 22 -21 242 -17 261 1 7 -20 -5 -46 -28 -27 -22 -54 -41 -60 -41 -6 0
-33 -25 -58 -55 -26 -30 -51 -55 -56 -55 -9 0 -41 97 -119 360 -76 256 -98
326 -99 313z"/>
<path d="M7946 11812 c-3 -10 -34 -118 -70 -242 -36 -124 -97 -319 -136 -433
-39 -115 -70 -210 -68 -212 10 -8 342 -239 453 -314 165 -112 414 -271 424
-271 6 0 174 517 257 795 19 66 39 132 44 148 8 26 6 29 -53 59 -127 64 -429
234 -634 358 -171 104 -213 125 -217 112z m-20 -638 c27 -178 53 -378 49 -382
-2 -2 -44 25 -94 59 -57 40 -90 68 -86 77 2 7 25 84 50 170 56 192 54 186 61
180 3 -3 12 -50 20 -104z"/>
<path d="M11704 11623 c-26 -32 -38 -49 -25 -38 25 22 85 95 78 95 -2 0 -26
-26 -53 -57z"/>
<path d="M13649 11144 c0 -16 -4 -67 -8 -114 l-7 -85 75 -152 c42 -84 79 -153
82 -153 4 0 23 22 42 48 l34 48 -109 219 c-80 162 -108 211 -109 189z"/>
<path d="M7654 10618 l-1 -143 25 75 c14 41 26 77 28 79 3 3 110 -68 249 -165
69 -48 64 -31 85 -294 15 -192 25 -740 14 -740 -10 0 -317 218 -497 352 -91
68 -108 85 -103 103 4 17 -2 25 -31 39 -35 17 -111 71 -124 89 -3 4 -11 -4
-17 -18 -11 -24 -7 -29 177 -171 160 -124 414 -313 659 -490 35 -25 65 -44 66
-42 15 17 329 915 324 928 -2 5 -95 65 -208 133 -315 190 -416 253 -533 333
-59 41 -109 74 -110 74 -1 0 -3 -64 -3 -142z"/>
<path d="M13830 10492 c-52 -70 -138 -184 -192 -253 l-96 -126 -16 -108 c-9
-59 -15 -110 -12 -112 4 -5 84 97 256 327 68 91 127 169 132 175 17 19 29 -19
23 -72 -18 -174 -247 -1283 -265 -1283 -4 0 -56 87 -116 194 -109 193 -121
207 -123 134 -1 -16 35 -90 92 -190 52 -90 106 -185 122 -213 59 -107 100
-175 107 -175 13 0 366 452 587 752 l123 167 -108 178 c-59 98 -174 300 -256
448 -83 149 -153 273 -157 277 -4 4 -49 -50 -101 -120z"/>
<path d="M13643 10438 c-74 -100 -87 -118 -80 -118 3 0 28 33 57 73 29 39 64
87 78 105 13 17 22 32 19 32 -2 0 -36 -42 -74 -92z"/>
<path d="M13360 9077 l-11 -54 91 -158 c50 -87 89 -162 88 -166 -2 -5 -86
-105 -188 -224 l-185 -216 -42 -122 -41 -122 56 60 c31 33 122 135 201 225 79
91 170 194 201 230 115 131 122 140 116 155 -3 8 -28 48 -55 88 -27 40 -87
137 -134 216 l-85 142 -12 -54z"/>
<path d="M13600 8498 c-135 -157 -202 -231 -382 -420 l-159 -167 97 -168 c175
-302 444 -742 454 -742 7 1 317 338 521 567 l166 186 -112 150 c-138 186 -280
389 -398 566 -49 74 -90 136 -91 136 0 1 -44 -48 -96 -108z m-194 -445 c-40
-140 -121 -393 -126 -393 -6 0 -96 147 -105 172 -5 12 28 56 117 157 67 77
126 141 129 141 4 0 -3 -35 -15 -77z"/>
<path d="M12970 7763 c0 -7 -25 -66 -55 -130 l-56 -118 55 54 c31 30 57 53 60
50 2 -2 45 -73 95 -158 l92 -154 -22 -66 c-73 -217 -345 -853 -363 -848 -10 3
-113 181 -263 455 -95 174 -104 195 -90 209 14 14 12 20 -16 57 -18 23 -41 60
-51 84 -20 43 -32 48 -49 20 -11 -16 95 -228 306 -613 60 -110 125 -229 144
-265 20 -36 44 -80 56 -98 l20 -34 199 199 c110 109 266 268 348 353 l148 156
-165 244 c-137 205 -229 347 -374 585 -10 17 -19 24 -19 18z"/>
</g>
</svg>
